<mxfile host="app.diagrams.net" agent="Mozilla/5.0 (Windows NT 10.0; Win64; x64) AppleWebKit/537.36 (KHTML, like Gecko) Chrome/128.0.0.0 Safari/537.36" version="24.7.7">
  <diagram name="‫עמוד-1‬" id="A5oyn7lyb_hoybjg6HGl">
    <mxGraphModel dx="794" dy="447" grid="1" gridSize="10" guides="1" tooltips="1" connect="1" arrows="1" fold="1" page="1" pageScale="1" pageWidth="827" pageHeight="1169" math="0" shadow="0">
      <root>
        <mxCell id="0" />
        <mxCell id="1" parent="0" />
        <mxCell id="i8Dx9n1eR3Ki-JGpyXoN-1" value="person 1" style="shape=actor;whiteSpace=wrap;html=1;verticalAlign=top;labelPosition=center;verticalLabelPosition=bottom;align=center;" parent="1" vertex="1">
          <mxGeometry x="170" y="100" width="40" height="60" as="geometry" />
        </mxCell>
        <mxCell id="i8Dx9n1eR3Ki-JGpyXoN-2" value="person 2" style="shape=actor;whiteSpace=wrap;html=1;labelPosition=center;verticalLabelPosition=bottom;align=center;verticalAlign=top;" parent="1" vertex="1">
          <mxGeometry x="430" y="100" width="40" height="60" as="geometry" />
        </mxCell>
        <mxCell id="i8Dx9n1eR3Ki-JGpyXoN-3" value="&lt;b&gt;&lt;font style=&quot;font-size: 31px;&quot;&gt;pair&amp;nbsp;&lt;/font&gt;&lt;/b&gt;" style="text;html=1;align=center;verticalAlign=middle;resizable=0;points=[];autosize=1;strokeColor=none;fillColor=none;" parent="1" vertex="1">
          <mxGeometry x="270" y="50" width="90" height="50" as="geometry" />
        </mxCell>
        <mxCell id="i8Dx9n1eR3Ki-JGpyXoN-5" value="" style="endArrow=classic;startArrow=classic;html=1;rounded=0;exitX=0.9;exitY=0.5;exitDx=0;exitDy=0;entryX=0.1;entryY=0.5;entryDx=0;entryDy=0;entryPerimeter=0;exitPerimeter=0;" parent="1" source="i8Dx9n1eR3Ki-JGpyXoN-1" target="i8Dx9n1eR3Ki-JGpyXoN-2" edge="1">
          <mxGeometry width="50" height="50" relative="1" as="geometry">
            <mxPoint x="380" y="-70" as="sourcePoint" />
            <mxPoint x="430" y="-120" as="targetPoint" />
            <Array as="points" />
          </mxGeometry>
        </mxCell>
        <mxCell id="i8Dx9n1eR3Ki-JGpyXoN-6" value="&lt;font style=&quot;font-size: 31px;&quot;&gt;&lt;b&gt;group&lt;/b&gt;&lt;/font&gt;" style="text;html=1;align=center;verticalAlign=middle;resizable=0;points=[];autosize=1;strokeColor=none;fillColor=none;" parent="1" vertex="1">
          <mxGeometry x="255" y="240" width="110" height="50" as="geometry" />
        </mxCell>
        <mxCell id="i8Dx9n1eR3Ki-JGpyXoN-7" value="host" style="shape=actor;whiteSpace=wrap;html=1;verticalAlign=top;labelPosition=center;verticalLabelPosition=bottom;align=center;" parent="1" vertex="1">
          <mxGeometry x="310" y="585" width="40" height="60" as="geometry" />
        </mxCell>
        <mxCell id="i8Dx9n1eR3Ki-JGpyXoN-8" value="person 1" style="shape=actor;whiteSpace=wrap;html=1;labelPosition=center;verticalLabelPosition=top;align=center;verticalAlign=bottom;" parent="1" vertex="1">
          <mxGeometry x="190" y="390" width="40" height="60" as="geometry" />
        </mxCell>
        <mxCell id="i8Dx9n1eR3Ki-JGpyXoN-9" value="person 2" style="shape=actor;whiteSpace=wrap;html=1;labelPosition=center;verticalLabelPosition=top;align=center;verticalAlign=bottom;" parent="1" vertex="1">
          <mxGeometry x="310" y="390" width="40" height="60" as="geometry" />
        </mxCell>
        <mxCell id="i8Dx9n1eR3Ki-JGpyXoN-10" value="person 3" style="shape=actor;whiteSpace=wrap;html=1;labelPosition=center;verticalLabelPosition=top;align=center;verticalAlign=bottom;textShadow=0;" parent="1" vertex="1">
          <mxGeometry x="414" y="390" width="40" height="60" as="geometry" />
        </mxCell>
        <mxCell id="XYZ_16Kyq5A2vaD2cnu9-1" value="changes in code" style="endArrow=classic;startArrow=classic;html=1;rounded=0;exitX=0.5;exitY=0;exitDx=0;exitDy=0;entryX=0.5;entryY=1;entryDx=0;entryDy=0;" edge="1" parent="1" source="i8Dx9n1eR3Ki-JGpyXoN-7" target="i8Dx9n1eR3Ki-JGpyXoN-9">
          <mxGeometry width="50" height="50" relative="1" as="geometry">
            <mxPoint x="300" y="520" as="sourcePoint" />
            <mxPoint x="350" y="470" as="targetPoint" />
          </mxGeometry>
        </mxCell>
        <mxCell id="XYZ_16Kyq5A2vaD2cnu9-4" value="changes in code" style="endArrow=classic;startArrow=classic;html=1;rounded=0;exitX=0.75;exitY=0.25;exitDx=0;exitDy=0;entryX=0.5;entryY=1;entryDx=0;entryDy=0;exitPerimeter=0;" edge="1" parent="1" source="i8Dx9n1eR3Ki-JGpyXoN-7" target="i8Dx9n1eR3Ki-JGpyXoN-10">
          <mxGeometry x="-0.2213" y="-16" width="50" height="50" relative="1" as="geometry">
            <mxPoint x="370" y="610" as="sourcePoint" />
            <mxPoint x="420" y="560" as="targetPoint" />
            <Array as="points" />
            <mxPoint as="offset" />
          </mxGeometry>
        </mxCell>
        <mxCell id="XYZ_16Kyq5A2vaD2cnu9-5" value="changes in code" style="endArrow=classic;startArrow=classic;html=1;rounded=0;entryX=0.5;entryY=1;entryDx=0;entryDy=0;exitX=0.25;exitY=0.2;exitDx=0;exitDy=0;exitPerimeter=0;" edge="1" parent="1" source="i8Dx9n1eR3Ki-JGpyXoN-7" target="i8Dx9n1eR3Ki-JGpyXoN-8">
          <mxGeometry x="-0.2638" y="12" width="50" height="50" relative="1" as="geometry">
            <mxPoint x="160" y="530" as="sourcePoint" />
            <mxPoint x="210" y="480" as="targetPoint" />
            <mxPoint as="offset" />
          </mxGeometry>
        </mxCell>
      </root>
    </mxGraphModel>
  </diagram>
</mxfile>
